<svg width="32" height="32" viewBox="0 0 32 32" fill="none" xmlns="http://www.w3.org/2000/svg">
<g id="Frame">
<path id="Vector" fill-rule="evenodd" clip-rule="evenodd" d="M8.74702 15.059C8.7365 14.2235 8.89198 13.3942 9.20445 12.6192C9.51691 11.8443 9.98014 11.139 10.5673 10.5445C11.1544 9.94993 11.8537 9.47787 12.6247 9.15567C13.3957 8.83348 14.2229 8.66757 15.0585 8.66757C15.8941 8.66757 16.7214 8.83348 17.4924 9.15567C18.2633 9.47787 18.9627 9.94993 19.5498 10.5445C20.1369 11.139 20.6001 11.8443 20.9126 12.6192C21.2251 13.3942 21.3805 14.2235 21.37 15.059C21.3491 16.7192 20.675 18.3042 19.4936 19.4708C18.3122 20.6374 16.7188 21.2916 15.0585 21.2916C13.3982 21.2916 11.8048 20.6374 10.6234 19.4708C9.44207 18.3042 8.76791 16.7192 8.74702 15.059ZM20.027 21.087C18.4783 22.3634 16.4978 22.9948 14.4961 22.8503C12.4943 22.7058 10.625 21.7964 9.27573 20.3108C7.92643 18.8252 7.20063 16.8773 7.24884 14.8709C7.29705 12.8646 8.11556 10.9538 9.53467 9.53467C10.9538 8.11556 12.8646 7.29705 14.8709 7.24884C16.8773 7.20063 18.8252 7.92643 20.3108 9.27573C21.7964 10.625 22.7058 12.4943 22.8503 14.4961C22.9948 16.4978 22.3634 18.4783 21.087 20.027L24.534 23.473C24.6077 23.5417 24.6668 23.6245 24.7078 23.7165C24.7488 23.8085 24.7708 23.9078 24.7726 24.0085C24.7744 24.1092 24.7559 24.2092 24.7181 24.3026C24.6804 24.396 24.6243 24.4808 24.5531 24.5521C24.4818 24.6233 24.397 24.6794 24.3036 24.7171C24.2102 24.7549 24.1102 24.7734 24.0095 24.7716C23.9088 24.7698 23.8095 24.7478 23.7175 24.7068C23.6255 24.6658 23.5427 24.6067 23.474 24.533L20.027 21.087Z" fill="#949494"/>
</g>
</svg>
