<svg width="33" height="33" viewBox="0 0 33 33" fill="none" xmlns="http://www.w3.org/2000/svg">
<g id="Frame">
<path id="Vector" fill-rule="evenodd" clip-rule="evenodd" d="M12.744 12.88C11.514 13.83 10.436 15.136 9.678 16.538C9.65297 16.5847 9.63987 16.6369 9.63987 16.69C9.63987 16.743 9.65297 16.7952 9.678 16.842L9.238 17.079L9.678 16.841C10.436 18.244 11.514 19.549 12.744 20.5C13.976 21.452 15.328 22.023 16.64 22.023C17.952 22.023 19.303 21.452 20.536 20.5C21.766 19.55 22.844 18.244 23.602 16.842C23.627 16.7952 23.64 16.743 23.64 16.69C23.64 16.6369 23.627 16.5847 23.602 16.538L24.042 16.301L23.602 16.539C22.844 15.137 21.765 13.831 20.536 12.881C19.303 11.928 17.952 11.357 16.64 11.357C15.327 11.357 13.976 11.928 12.744 12.881V12.88ZM12.132 12.09C13.478 11.048 15.04 10.356 16.64 10.356C18.24 10.356 19.801 11.048 21.147 12.088C22.497 13.131 23.663 14.548 24.481 16.062C24.692 16.453 24.692 16.926 24.481 17.317C23.663 18.831 22.496 20.247 21.147 21.29C19.801 22.33 18.24 23.022 16.64 23.022C15.04 23.022 13.478 22.33 12.132 21.29C10.783 20.247 9.617 18.83 8.798 17.316C8.588 16.925 8.588 16.452 8.798 16.062C9.617 14.547 10.783 13.131 12.132 12.088V12.09Z" fill="#949494"/>
<path id="Vector_2" fill-rule="evenodd" clip-rule="evenodd" d="M18.054 15.2759C17.8695 15.0849 17.6488 14.9326 17.4048 14.8277C17.1608 14.7229 16.8984 14.6677 16.6328 14.6654C16.3673 14.6631 16.1039 14.7137 15.8581 14.8143C15.6123 14.9149 15.389 15.0634 15.2012 15.2512C15.0134 15.4389 14.8649 15.6622 14.7644 15.908C14.6638 16.1538 14.6132 16.4172 14.6155 16.6827C14.6178 16.9483 14.673 17.2107 14.7778 17.4547C14.8826 17.6988 15.035 17.9194 15.226 18.1039C15.6032 18.4683 16.1084 18.6698 16.6328 18.6653C17.1572 18.6607 17.6588 18.4504 18.0297 18.0796C18.4005 17.7088 18.6108 17.2071 18.6154 16.6827C18.6199 16.1584 18.4183 15.6531 18.054 15.2759ZM18.761 14.5689C18.4843 14.2824 18.1532 14.0539 17.7872 13.8966C17.4212 13.7394 17.0276 13.6567 16.6292 13.6532C16.2309 13.6497 15.8358 13.7256 15.4672 13.8765C15.0985 14.0273 14.7635 14.2501 14.4818 14.5318C14.2002 14.8134 13.9774 15.1484 13.8265 15.5171C13.6757 15.8858 13.5998 16.2808 13.6033 16.6791C13.6067 17.0775 13.6895 17.4711 13.8467 17.8372C14.0039 18.2032 14.2325 18.5342 14.519 18.8109C15.0848 19.3574 15.8426 19.6598 16.6292 19.653C17.4158 19.6461 18.1682 19.3306 18.7245 18.7744C19.2807 18.2182 19.5962 17.4657 19.603 16.6791C19.6099 15.8926 19.3075 15.1347 18.761 14.5689Z" fill="#949494"/>
</g>
</svg>
